Coordinates
version=1
nRows=5
nColumns=63
inDegrees=yes

Units are S.I. units (second, meters, Newtons, ...)
If the header above contains a line with 'inDegrees', this indicates whether rotational values are in degrees (yes) or radians (no).

endheader
time	pelvis_tilt	pelvis_list	pelvis_rotation	pelvis_tx	pelvis_ty	pelvis_tz	hip_flexion_r	hip_adduction_r	hip_rotation_r	knee_angle_r	knee_angle_r_beta	ankle_angle_r	subtalar_angle_r	mtp_angle_r	hip_flexion_l	hip_adduction_l	hip_rotation_l	knee_angle_l	knee_angle_l_beta	ankle_angle_l	subtalar_angle_l	mtp_angle_l	L5_S1_Flex_Ext	L5_S1_Lat_Bending	L5_S1_axial_rotation	L4_L5_Flex_Ext	L4_L5_Lat_Bending	L4_L5_axial_rotation	L3_L4_Flex_Ext	L3_L4_Lat_Bending	L3_L4_axial_rotation	L2_L3_Flex_Ext	L2_L3_Lat_Bending	L2_L3_axial_rotation	L1_L2_Flex_Ext	L1_L2_Lat_Bending	L1_L2_axial_rotation	L1_T12_Flex_Ext	L1_T12_Lat_Bending	L1_T12_axial_rotation	Abs_r3	Abs_r2	Abs_r1	Abs_t1	Abs_t2	neck_flexion	neck_bending	neck_rotation	arm_flex_r	arm_add_r	arm_rot_r	elbow_flex_r	pro_sup_r	wrist_flex_r	wrist_dev_r	arm_flex_l	arm_add_l	arm_rot_l	elbow_flex_l	pro_sup_l	wrist_flex_l	wrist_dev_l
      3.62264151	     -6.69272658	     -1.88744916	     98.33714341	      0.31665883	      0.78365013	      0.88379745	     -2.83497111	      0.46557271	    -13.62593908	      2.91156633	      0.05081642	     21.85347343	     11.98401120	      0.00000000	      0.38669881	      0.67169260	      4.73830394	      7.29320358	      0.12729042	     19.04901748	      0.83923134	      0.00000000	     -0.02355982	     -0.20628763	     -0.06325457	     -0.04375294	     -0.27436255	     -0.06720798	     -0.03870642	     -0.50156775	     -0.06720798	     -0.02692652	     -0.50156775	     -0.05534775	     -0.02187765	     -0.42066174	     -0.05139434	     -0.01346208	     -0.31953954	     -0.04744093	     -0.16828542	     -2.33356697	     -0.35180294	      0.00000000	      0.00000000	      4.81881829	      2.96910238	     -8.21667525	     21.04540009	     -2.48137281	     72.31682524	     47.58231002	     36.45375254	     -4.59567577	     11.83705919	      6.93903910	    -13.30693801	     27.79758402	     44.02069614	     80.32537172	    -10.14972554	    -13.38162985
      3.64150943	     -6.57486123	     -1.78249546	     98.46167950	      0.31665874	      0.78365685	      0.88305284	     -2.94257709	      0.61985643	    -13.65153626	      2.99499728	      0.05227256	     21.87207101	     11.90456685	      0.00000000	      0.16232380	      0.51479141	      4.97781266	      7.18104007	      0.12533279	     18.82014651	      0.77781999	      0.00000000	     -0.02002013	     -0.19819599	     -0.07731454	     -0.03717938	     -0.26360067	     -0.08214669	     -0.03289106	     -0.48189373	     -0.08214669	     -0.02288100	     -0.48189373	     -0.06765022	     -0.01859069	     -0.40416126	     -0.06281806	     -0.01143950	     -0.30700559	     -0.05798590	     -0.14300176	     -2.24203267	     -0.43000025	      0.00000000	      0.00000000	      4.56147555	      2.94373889	     -8.56868831	     21.19389333	     -2.15601611	     71.76312171	     47.12333966	     37.11627481	     -5.15015609	     11.14761737	      7.33234905	    -12.93674455	     26.87015287	     43.05293155	     79.62763619	     -9.50697398	    -13.28942190
      3.66037736	     -6.51955047	     -1.74619875	     98.47943456	      0.31686292	      0.78358744	      0.88268776	     -2.94673152	      0.69083467	    -13.65181916	      3.10294357	      0.05415658	     21.91514093	     11.87154799	      0.00000000	      0.07789007	      0.43144163	      5.04900334	      7.21566712	      0.12593715	     18.56234230	      0.78200473	      0.00000000	     -0.01138599	     -0.19464457	     -0.09926731	     -0.02114492	     -0.25887728	     -0.10547151	     -0.01870604	     -0.47325881	     -0.10547151	     -0.01301305	     -0.47325881	     -0.08685889	     -0.01057303	     -0.39691921	     -0.08065469	     -0.00650595	     -0.30150444	     -0.07445048	     -0.08132897	     -2.20185833	     -0.55209497	      0.00000000	      0.00000000	      4.25421565	      2.89357535	     -8.80817282	     21.65807219	     -1.67267836	     71.38875470	     46.55232848	     37.50081442	     -5.45604590	     10.87531267	      7.94319104	    -12.72590597	     26.31312868	     41.94399103	     79.34255696	     -9.52136549	    -12.99541532
      3.67924528	     -6.51789763	     -1.70584942	     98.51130511	      0.31692333	      0.78368750	      0.88290374	     -2.92559517	      0.69521181	    -13.72550377	      3.22948986	      0.05636523	     21.93668328	     11.80102082	      0.00000000	      0.02069075	      0.41911693	      5.13804821	      7.25853490	      0.12668533	     18.20348972	      0.72956838	      0.00000000	     -0.01446004	     -0.19332104	     -0.12205411	     -0.02685374	     -0.25711699	     -0.12968249	     -0.02375640	     -0.47004079	     -0.12968249	     -0.01652638	     -0.47004079	     -0.10679735	     -0.01342759	     -0.39422027	     -0.09916897	     -0.00826247	     -0.29945430	     -0.09154058	     -0.10328661	     -2.18688632	     -0.67882836	      0.00000000	      0.00000000	      3.90210885	      2.55539925	     -9.29062582	     22.21755199	     -1.21074259	     70.97401203	     46.02786878	     38.62509217	     -5.78742326	     10.21079011	      8.84442649	    -12.30476148	     25.66052886	     40.33959839	     78.96157604	     -9.18260068	    -12.75319657
      3.69811321	     -6.45274775	     -1.76863997	     98.37821643	      0.31686442	      0.78354297	      0.88312626	     -2.78439853	      0.70717130	    -13.94622772	      3.34196122	      0.05832823	     22.00650586	     12.24637064	      0.00000000	      0.00383941	      0.45760370	      6.30058982	      7.18316262	      0.12536984	     17.66489808	     -1.08675418	      0.00000000	     -0.01076459	     -0.18733313	     -0.04608397	     -0.01999093	     -0.24915306	     -0.04896422	     -0.01768515	     -0.45548177	     -0.04896422	     -0.01230285	     -0.45548177	     -0.04032348	     -0.00999600	     -0.38200972	     -0.03744323	     -0.00615089	     -0.29017902	     -0.03456298	     -0.07689041	     -2.11914981	     -0.25630523	      0.00000000	      0.00000000	      3.73975202	      1.90116639	    -10.83691297	     21.27887306	     -0.85110385	     65.96393185	     45.75594899	     52.02968412	     -4.14972179	     10.83592010	     10.30538209	    -11.72511450	     25.66000635	     37.83022671	     77.00280948	     -5.90899643	    -13.76127656
